<?xml version="1.0" encoding="UTF-8" standalone="no"?>
<!DOCTYPE svg PUBLIC "-//W3C//DTD SVG 1.1//EN" "http://www.w3.org/Graphics/SVG/1.1/DTD/svg11.dtd">
<svg version="1.1" xmlns="http://www.w3.org/2000/svg" xmlns:xlink="http://www.w3.org/1999/xlink" preserveAspectRatio="xMidYMid meet" viewBox="0 0 250 250" width="250" height="250"><defs><path d="M0 250L250 250L250 0L0 0L0 250Z" id="b2esQQksKK"></path><path d="M127.13 198.69C120.21 198.7 113.28 198.7 106.36 198.69C102.16 198.69 94.85 200.44 90.78 198.66C75.79 192.1 81.35 158.63 81.31 143.47C81.26 127.59 81.22 111.71 81.18 95.82C81.16 88.41 81.14 81 81.12 73.59C81.11 69.35 81.1 65.12 81.08 60.88C84.13 52.46 88.85 48.94 95.25 50.31C107.08 47.62 122.96 48.81 134.99 49.69C147.22 50.58 161.52 65.51 168.94 77.6C174.16 86.1 173.73 93.61 173.71 104.08C173.7 112.04 173.69 120 173.68 127.96C173.67 132.62 179.65 132.62 179.66 127.96C179.69 109.43 184.47 86.64 173.17 72.48C163.72 60.65 152.03 43.51 137.64 42.41C125.44 41.48 112.79 42.8 100.55 42.99C95.07 43.08 86.62 41.5 81.52 44.84C77.22 47.65 75.88 51.47 75.2 57.07C73.69 69.5 75.16 83.3 75.2 95.82C75.27 123.36 75.35 150.89 75.42 178.42C75.46 192.8 74.94 204.27 88.94 205.8C110.72 208.19 133.73 206.18 155.61 205.84C163.9 205.71 182.24 206.92 178.07 190.79C176.93 186.37 171.15 188.26 172.3 192.72C172.3 192.72 172.3 192.72 172.3 192.72C144.7 196.7 129.64 198.69 127.13 198.69Z" id="b1B5gpcoqv"></path><path d="M159.62 180.49C154.39 176.63 152.32 170.14 151.57 163.05C150.74 155.16 150.05 148.81 156.33 144.18C163.29 139.05 170.56 134.12 178.88 137.67C189.92 142.38 192.78 157.52 189.12 169.56C187.79 173.94 193.57 175.83 194.89 171.49C199.43 156.54 195.24 138.73 182.71 131.82C176.96 128.65 170.25 128.13 164.29 130.83C160.11 132.72 156.12 136.06 152.08 138.34C149.89 139.57 147.86 140.58 146.62 143.26C143.62 149.7 144.84 161.14 146.11 168.05C147.58 176.03 151.33 183.97 157.5 187.85C171.31 196.54 188.02 188.35 194.59 172.35C196.29 168.19 191.14 164.53 189.42 168.7C184.11 181.64 170.41 188.46 159.62 180.49Z" id="aABlGPYJB"></path><path d="M194.17 180.15C195.23 181.08 196.45 181.51 197.59 182.23C200.69 184.2 202.99 187.28 203.76 191.53C205.22 199.61 198.33 195.96 195.34 193.59C191.92 190.89 188.89 187.68 186.04 184.16C183.35 180.82 179.12 185.93 181.81 189.27C186.03 194.5 191.37 200.48 197.12 203.09C201.13 204.92 207.72 204.3 209.45 198.71C211.14 193.27 209.25 186.32 206.5 181.92C204.91 179.37 202.94 177.44 200.61 175.99C198.09 174.42 196.29 172.02 193.83 170.48C190.42 168.34 187.39 174.58 190.81 176.72C190.81 176.72 190.81 176.72 190.81 176.72C192.24 178.3 193.36 179.45 194.17 180.15Z" id="cOS7o48pa"></path><path d="M141.6 71.55C141.75 75.7 140.96 83.05 143.67 86.23C146.22 89.21 151.38 88.62 154.56 88.62C160.5 88.62 166.43 88.59 172.37 88.58C176.22 88.57 176.22 81.34 172.37 81.35C168.18 81.36 163.99 81.37 159.8 81.37C156.9 81.38 151.23 82.62 148.99 80.3C146.71 77.94 147.51 70.04 147.44 66.37C147.33 61.19 147.38 56.01 147.51 50.83C147.63 46.17 141.65 46.18 141.53 50.83C141.53 50.83 141.53 50.83 141.53 50.83C141.41 60.04 141.43 66.95 141.6 71.55Z" id="aJCuRca"></path><path d="M129.84 86.58C133.68 86.58 133.69 79.35 129.84 79.35C119.42 79.35 109.01 79.35 98.6 79.35C94.75 79.35 94.75 86.58 98.6 86.58C109.01 86.58 119.42 86.58 129.84 86.58C133.68 86.58 133.69 79.35 129.84 79.35C119.42 79.35 109.01 79.35 98.6 79.35C94.75 79.35 94.75 86.58 98.6 86.58C109.01 86.58 119.42 86.58 129.84 86.58Z" id="a1WuFPSVvy"></path><path d="M157.08 108.19C160.93 108.18 160.94 100.94 157.08 100.96C136.92 101.05 116.77 101.15 96.61 101.24C92.76 101.26 92.75 108.49 96.61 108.47C96.61 108.47 96.61 108.47 96.61 108.47C123.49 108.35 143.64 108.26 157.08 108.19Z" id="c4wM0glq3"></path><path d="M157.08 127.97C160.93 127.97 160.94 120.74 157.08 120.74C137.37 120.74 117.65 120.74 97.94 120.74C94.09 120.74 94.08 127.97 97.94 127.97C97.94 127.97 97.94 127.97 97.94 127.97C124.22 127.97 143.94 127.97 157.08 127.97Z" id="g3nidyPyXT"></path><path d="M149.77 149.16C149.77 146.75 149.77 144.34 149.77 141.93C132.16 142.04 114.55 142.15 96.94 142.26C93.09 142.28 93.08 149.51 96.94 149.49C114.55 149.38 132.16 149.27 149.77 149.16C153.62 149.14 153.63 141.9 149.77 141.93C132.16 142.04 114.55 142.15 96.94 142.26C93.09 142.28 93.08 149.51 96.94 149.49C114.55 149.38 132.16 149.27 149.77 149.16Z" id="b2RZxScIu"></path><path d="M146.45 170.96C150.3 170.96 150.31 163.73 146.45 163.73C129.73 163.73 113 163.73 96.27 163.73C92.43 163.73 92.42 170.96 96.27 170.96C96.27 170.96 96.27 170.96 96.27 170.96C118.58 170.96 135.3 170.96 146.45 170.96Z" id="g3sWfsILg"></path></defs><g><g><g><use xlink:href="#b2esQQksKK" opacity="1" fill="#52f452" fill-opacity="1"></use></g><g><use xlink:href="#b1B5gpcoqv" opacity="1" fill="#231f20" fill-opacity="1"></use><g><use xlink:href="#b1B5gpcoqv" opacity="1" fill-opacity="0" stroke="#000000" stroke-width="1" stroke-opacity="0"></use></g></g><g><use xlink:href="#aABlGPYJB" opacity="1" fill="#231f20" fill-opacity="1"></use><g><use xlink:href="#aABlGPYJB" opacity="1" fill-opacity="0" stroke="#000000" stroke-width="1" stroke-opacity="0"></use></g></g><g><use xlink:href="#cOS7o48pa" opacity="1" fill="#231f20" fill-opacity="1"></use><g><use xlink:href="#cOS7o48pa" opacity="1" fill-opacity="0" stroke="#000000" stroke-width="1" stroke-opacity="0"></use></g></g><g><use xlink:href="#aJCuRca" opacity="1" fill="#231f20" fill-opacity="1"></use><g><use xlink:href="#aJCuRca" opacity="1" fill-opacity="0" stroke="#000000" stroke-width="1" stroke-opacity="0"></use></g></g><g><use xlink:href="#a1WuFPSVvy" opacity="1" fill="#231f20" fill-opacity="1"></use><g><use xlink:href="#a1WuFPSVvy" opacity="1" fill-opacity="0" stroke="#000000" stroke-width="1" stroke-opacity="0"></use></g></g><g><use xlink:href="#c4wM0glq3" opacity="1" fill="#231f20" fill-opacity="1"></use><g><use xlink:href="#c4wM0glq3" opacity="1" fill-opacity="0" stroke="#000000" stroke-width="1" stroke-opacity="0"></use></g></g><g><use xlink:href="#g3nidyPyXT" opacity="1" fill="#231f20" fill-opacity="1"></use><g><use xlink:href="#g3nidyPyXT" opacity="1" fill-opacity="0" stroke="#000000" stroke-width="1" stroke-opacity="0"></use></g></g><g><use xlink:href="#b2RZxScIu" opacity="1" fill="#231f20" fill-opacity="1"></use><g><use xlink:href="#b2RZxScIu" opacity="1" fill-opacity="0" stroke="#000000" stroke-width="1" stroke-opacity="0"></use></g></g><g><use xlink:href="#g3sWfsILg" opacity="1" fill="#231f20" fill-opacity="1"></use><g><use xlink:href="#g3sWfsILg" opacity="1" fill-opacity="0" stroke="#000000" stroke-width="1" stroke-opacity="0"></use></g></g></g></g></svg>