<?xml version="1.0" encoding="UTF-8" standalone="no"?>
<!DOCTYPE svg PUBLIC "-//W3C//DTD SVG 1.1//EN" "http://www.w3.org/Graphics/SVG/1.1/DTD/svg11.dtd">
<svg version="1.1" xmlns="http://www.w3.org/2000/svg" xmlns:xlink="http://www.w3.org/1999/xlink" preserveAspectRatio="xMidYMid meet" viewBox="0 0 250 250" width="250" height="250"><defs><path d="M0 250L250 250L250 0L0 0L0 250Z" id="b2esQQksKK"></path><path d="M134.66 149.34C137.56 149.32 137.53 142.75 134.62 142.78C122.01 142.87 109.4 142.96 96.79 143.05C93.89 143.07 93.93 149.64 96.83 149.61C96.83 149.61 96.83 149.61 96.83 149.61C113.65 149.49 126.25 149.4 134.66 149.34Z" id="agrD5N0oH"></path><path d="M165.74 130.36C165.74 128.26 165.74 126.17 165.74 124.08C143.5 124.17 121.27 124.27 99.04 124.36C94.18 124.38 94.17 130.66 99.04 130.64C121.27 130.55 143.5 130.45 165.74 130.36C170.59 130.33 170.6 124.06 165.74 124.08C143.5 124.17 121.27 124.27 99.04 124.36C94.18 124.38 94.17 130.66 99.04 130.64C121.27 130.55 143.5 130.45 165.74 130.36Z" id="a1wy28OQpy"></path><path d="M167.23 111.59C171.61 111.59 171.62 105.27 167.23 105.27C144.76 105.27 122.29 105.27 99.82 105.27C95.44 105.27 95.43 111.59 99.82 111.59C99.82 111.59 99.82 111.59 99.82 111.59C129.78 111.59 152.25 111.59 167.23 111.59Z" id="eW5iHnh39"></path><path d="M167.23 94.32C171.61 94.3 171.62 87.98 167.23 88C144.25 88.08 121.28 88.16 98.31 88.24C93.92 88.26 93.91 94.58 98.31 94.56C98.31 94.56 98.31 94.56 98.31 94.56C128.94 94.45 151.91 94.37 167.23 94.32Z" id="cgEuOZv54"></path><path d="M136.18 75.44C140.56 75.44 140.57 69.12 136.18 69.12C124.31 69.12 112.44 69.12 100.58 69.12C96.19 69.12 96.19 75.44 100.58 75.44C112.44 75.44 124.31 75.44 136.18 75.44C140.56 75.44 140.57 69.12 136.18 69.12C124.31 69.12 112.44 69.12 100.58 69.12C96.19 69.12 96.19 75.44 100.58 75.44C112.44 75.44 124.31 75.44 136.18 75.44Z" id="a2Ea7EQD6j"></path><path d="M184.11 137.78C184.11 148.89 184.12 160 184.12 171.11C184.12 175.63 185.37 183.74 184.13 187.78C181.88 195.11 176.5 196.66 170.95 197.68C153.51 200.88 132.85 198.64 115.16 198.26C105.07 198.04 95.35 198.98 87.06 192.36C79.89 186.64 81.43 183.18 81.36 174.43C81.32 168.81 81.3 163.18 81.3 157.56C81.29 136.19 81.55 114.82 82.03 93.46C82.26 83.34 82.54 73.22 82.86 63.1C83.3 49.01 81.07 42.54 95.57 42.31C104.46 42.16 113.36 42.02 122.25 41.87C132.51 41.71 146.75 39.16 156.1 44.53C168.1 51.42 174.39 68.34 186 76.76C189.75 79.49 193.25 72.9 189.52 70.19C174.85 59.55 168.37 37.6 149.47 34.35C136.96 32.21 122.97 34.25 110.39 34.45C102.65 34.58 89.1 31.78 82.35 35.57C78.53 37.72 77.56 39.98 76.63 44.51C73.95 57.59 75.54 73.28 75.21 86.71C74.44 118.19 74.12 149.69 74.44 181.18C74.5 186.89 72.81 196.05 76.92 200.71C81.4 205.79 95.61 204.8 101.05 205.22C125.25 207.08 152.33 208.07 176.48 205.21C195.18 203 191.11 184.41 191.1 167.78C191.09 136.67 191.08 105.55 191.07 74.44C191.07 69.54 184.08 69.53 184.09 74.44C184.09 74.44 184.09 74.44 184.09 74.44C184.1 102.59 184.1 123.7 184.11 137.78Z" id="a26GhmVwSw"></path><path d="M151.12 64.43C151.5 68.16 151.52 71.63 154.58 73.98C157.71 76.39 162.43 76.63 166.18 77.05C172.69 77.78 179.25 77.51 185.77 77.25C190.25 77.07 190.28 69.46 185.77 69.64C181.69 69.8 177.6 69.98 173.51 69.89C170.11 69.81 162.76 70.41 159.88 68.29C157.18 66.29 157.76 60.99 157.39 57.25C156.86 51.99 156.33 46.72 155.81 41.45C155.33 36.64 148.34 36.58 148.82 41.45C148.82 41.45 148.82 41.45 148.82 41.45C149.84 51.67 150.6 59.33 151.12 64.43Z" id="j2z0IygpBt"></path><path d="M158.84 159.45C158.95 159.93 159.47 160.32 159.96 160.3C162.79 160.21 165.56 160.31 168.37 160.59C168.04 160.01 167.7 159.42 167.36 158.84C165.76 161.14 161.54 160.61 160.14 163.29C158.72 166.04 161.7 170.31 162.71 172.81C163.09 172.32 163.46 171.83 163.84 171.34C160.88 171.7 159.77 166.08 157.07 166.01C153.96 165.92 151.94 170.28 149.35 171.28C149.83 171.55 150.31 171.82 150.79 172.09C150.4 169.34 154.88 166.13 153.44 163.44C152.98 162.59 151.35 162.17 150.59 161.58C149.43 160.69 147.01 159.29 146.24 158.2C145.9 158.79 145.57 159.37 145.23 159.95C147.96 159.73 152.8 160.89 155.2 159.35C157.4 157.95 157.25 154.42 158.2 152.28C158.8 150.93 156.79 149.74 156.18 151.11C155.57 152.48 155.42 154.98 154.64 156.1C152.99 158.49 147.74 157.42 145.23 157.63C144.43 157.69 143.67 158.59 144.22 159.38C144.93 160.38 145.49 160.65 146.51 161.34C147.03 161.69 150.34 163.74 150.74 164.56C151.56 166.27 148.16 170.07 148.53 172.71C148.61 173.29 149.44 173.72 149.97 173.52C151.18 173.05 152.08 172.51 153.06 171.65C153.71 171.08 154.34 170.42 154.92 169.79C155.28 169.47 155.59 169.11 155.85 168.7C156.32 167.62 156.75 167.74 157.15 169.05C159.29 170.32 160.98 174.01 163.84 173.66C164.5 173.58 165.28 172.97 164.97 172.19C164.36 170.68 163.36 168.87 162.98 167.28C162.19 163.97 163.13 163.76 166.39 162.21C167.73 161.57 168.53 161.24 169.39 160.01C169.94 159.22 169.18 158.35 168.37 158.27C166.64 158.09 162.45 158.56 161.19 157.61C159.91 156.66 159.32 152.82 158.72 151.29C158.17 149.92 155.91 150.52 156.46 151.91C156.46 151.91 156.46 151.91 156.46 151.91C157.63 155.21 158.42 157.73 158.84 159.45Z" id="bEOTraliv"></path><path d="M158.33 178.07C149.85 178.46 142.24 170.6 142.01 162.45C141.88 158.17 142.59 154.24 146.48 151.64C149.7 149.48 153.9 148.01 157.82 148.18C164.05 148.44 170.89 154.59 171.97 160.69C172.22 162.16 174.48 161.54 174.22 160.07C172.65 151.12 163.12 144.77 154.36 146.14C149.87 146.84 144.45 149.06 141.6 152.76C139.03 156.1 139.26 161.74 139.85 165.69C140.56 170.53 144.5 174.57 148.22 177.55C151.52 180.2 156.12 180.83 160.25 180.2C170.38 178.65 177.22 168.66 173.79 158.94C173.3 157.54 171.04 158.14 171.53 159.56C171.53 159.56 171.53 159.56 171.53 159.56C169.03 171.62 164.63 177.79 158.33 178.07Z" id="c3HPp605Ks"></path><path d="M172.03 194.43C172.6 194 173.18 193.56 173.75 193.12C171.5 191.59 169.69 189.77 167.64 188.11C167.16 187.72 166.99 187.35 166.27 187.33C163.92 187.27 162.91 194.1 161.61 195.29C162.27 195.57 162.94 195.84 163.61 196.11C163.13 190.62 163.7 183.74 159.92 179.24C158.96 178.09 157.31 179.74 158.27 180.88C161.48 184.71 160.86 191.4 161.26 196.11C161.35 197.11 162.48 197.65 163.26 196.93C164.18 196.1 164.76 195.29 165.26 194.14C165.44 193.73 165.61 193.28 165.72 192.84C165.85 192.39 165.98 191.93 166.11 191.47C165.44 189.36 165.39 188.81 165.98 189.84C166.59 190.14 167.46 191.43 168.05 191.91C169.48 193.06 171.05 194.09 172.57 195.13C173.49 195.76 174.45 194.72 174.29 193.82C173.14 187.4 171.39 181.05 169.89 174.71C169.55 173.25 167.29 173.87 167.63 175.33C167.63 175.33 167.63 175.33 167.63 175.33C169.8 183.78 171.27 190.15 172.03 194.43Z" id="a8oOfcsOMG"></path><path d="M140.19 193.87C140.13 194.85 141.53 195.43 142.19 194.69C144.01 192.65 146.17 189.24 148.84 188.29C148.36 188.02 147.88 187.75 147.4 187.48C148.24 190.48 148.51 194.82 151.19 196.83C151.96 197.41 152.9 196.6 152.95 195.83C153.35 190.47 154.56 185.41 156.55 180.43C157.11 179.04 154.84 178.43 154.29 179.81C152.22 184.98 151.02 190.28 150.61 195.83C151.2 195.49 151.79 195.16 152.37 194.82C150.7 193.57 150.21 188.82 149.65 186.86C149.49 186.29 148.81 185.84 148.21 186.05C144.89 187.24 142.8 190.51 140.53 193.05C141.2 193.32 141.86 193.6 142.53 193.87C142.91 187.5 145.37 180.85 146.85 174.65C147.2 173.2 144.94 172.58 144.59 174.03C144.59 174.03 144.59 174.03 144.59 174.03C141.92 182.86 140.45 189.47 140.19 193.87Z" id="d5pcERezN"></path><path d="M130.5 169.75C133.04 169.73 133.01 163.41 130.46 163.43C119.41 163.51 108.36 163.59 97.3 163.67C94.76 163.69 94.8 170.01 97.34 169.99C97.34 169.99 97.34 169.99 97.34 169.99C112.08 169.88 123.13 169.8 130.5 169.75Z" id="b2BMqoHOlp"></path></defs><g><g><g><use xlink:href="#b2esQQksKK" opacity="1" fill="#52f452" fill-opacity="1"></use></g><g><use xlink:href="#agrD5N0oH" opacity="1" fill="#231f20" fill-opacity="1"></use><g><use xlink:href="#agrD5N0oH" opacity="1" fill-opacity="0" stroke="#000000" stroke-width="1" stroke-opacity="0"></use></g></g><g><use xlink:href="#a1wy28OQpy" opacity="1" fill="#231f20" fill-opacity="1"></use><g><use xlink:href="#a1wy28OQpy" opacity="1" fill-opacity="0" stroke="#000000" stroke-width="1" stroke-opacity="0"></use></g></g><g><use xlink:href="#eW5iHnh39" opacity="1" fill="#231f20" fill-opacity="1"></use><g><use xlink:href="#eW5iHnh39" opacity="1" fill-opacity="0" stroke="#000000" stroke-width="1" stroke-opacity="0"></use></g></g><g><use xlink:href="#cgEuOZv54" opacity="1" fill="#231f20" fill-opacity="1"></use><g><use xlink:href="#cgEuOZv54" opacity="1" fill-opacity="0" stroke="#000000" stroke-width="1" stroke-opacity="0"></use></g></g><g><use xlink:href="#a2Ea7EQD6j" opacity="1" fill="#231f20" fill-opacity="1"></use><g><use xlink:href="#a2Ea7EQD6j" opacity="1" fill-opacity="0" stroke="#000000" stroke-width="1" stroke-opacity="0"></use></g></g><g><use xlink:href="#a26GhmVwSw" opacity="1" fill="#231f20" fill-opacity="1"></use><g><use xlink:href="#a26GhmVwSw" opacity="1" fill-opacity="0" stroke="#000000" stroke-width="1" stroke-opacity="0"></use></g></g><g><use xlink:href="#j2z0IygpBt" opacity="1" fill="#231f20" fill-opacity="1"></use><g><use xlink:href="#j2z0IygpBt" opacity="1" fill-opacity="0" stroke="#000000" stroke-width="1" stroke-opacity="0"></use></g></g><g><use xlink:href="#bEOTraliv" opacity="1" fill="#231f20" fill-opacity="1"></use><g><use xlink:href="#bEOTraliv" opacity="1" fill-opacity="0" stroke="#000000" stroke-width="1" stroke-opacity="0"></use></g></g><g><use xlink:href="#c3HPp605Ks" opacity="1" fill="#231f20" fill-opacity="1"></use><g><use xlink:href="#c3HPp605Ks" opacity="1" fill-opacity="0" stroke="#000000" stroke-width="1" stroke-opacity="0"></use></g></g><g><use xlink:href="#a8oOfcsOMG" opacity="1" fill="#231f20" fill-opacity="1"></use><g><use xlink:href="#a8oOfcsOMG" opacity="1" fill-opacity="0" stroke="#000000" stroke-width="1" stroke-opacity="0"></use></g></g><g><use xlink:href="#d5pcERezN" opacity="1" fill="#231f20" fill-opacity="1"></use><g><use xlink:href="#d5pcERezN" opacity="1" fill-opacity="0" stroke="#000000" stroke-width="1" stroke-opacity="0"></use></g></g><g><use xlink:href="#b2BMqoHOlp" opacity="1" fill="#231f20" fill-opacity="1"></use><g><use xlink:href="#b2BMqoHOlp" opacity="1" fill-opacity="0" stroke="#000000" stroke-width="1" stroke-opacity="0"></use></g></g></g></g></svg>