<?xml version="1.0" encoding="UTF-8" standalone="no"?>
<!DOCTYPE svg PUBLIC "-//W3C//DTD SVG 1.1//EN" "http://www.w3.org/Graphics/SVG/1.1/DTD/svg11.dtd">
<svg version="1.1" xmlns="http://www.w3.org/2000/svg" xmlns:xlink="http://www.w3.org/1999/xlink" preserveAspectRatio="xMidYMid meet" viewBox="0 0 250 250" width="250" height="250"><defs><path d="M-1.46 250.47L250 250.47L250 0.47L-1.46 0.47L-1.46 250.47Z" id="a1RJDdqMNl"></path><path d="M206.53 105.84C205.73 112.42 201.9 115 197.85 119.32C191.46 126.13 185.06 132.94 178.67 139.75C171.85 147.02 164.97 156.13 155.82 159.55C149.34 161.99 143.34 161.9 137.16 165.53C138.81 166.91 140.46 168.3 142.11 169.69C143.51 164.38 143.61 158.78 144.92 153.57C148.13 140.92 155.45 133.85 163.44 124.87C168.51 119.16 192.77 84.96 201.49 93.08C204.78 96.14 209.56 90.95 206.25 87.87C192.21 74.79 178.81 97.03 169.87 107.07C161 117.04 149.81 126.81 142.46 138.16C136.82 146.88 138.26 157.75 135.61 167.73C134.77 170.92 138.04 173.37 140.56 171.89C149.79 166.47 160.09 167.84 168.61 160.59C179.46 151.36 188.93 139.1 198.78 128.62C204.18 122.85 214.47 115.55 215.96 106.74C217.45 97.93 209.61 92.23 204.4 87.04C201.2 83.85 196.43 89.05 199.64 92.25C199.64 92.25 199.64 92.25 199.64 92.25C204.87 96.14 207.17 100.67 206.53 105.84Z" id="c1lzaucoxg"></path><path d="M190.53 113.09C193.18 116.05 195.48 118.37 197.61 121.83C200.02 125.74 205.86 122.05 203.43 118.11C202.13 116.01 201.07 113.48 199.31 111.83C197.43 110.07 195.65 108.28 193.89 106.32C190.67 102.73 187.68 98.56 183.1 97.11C178.93 95.79 177.15 102.9 181.31 104.21C181.31 104.21 181.31 104.21 181.31 104.21C185.75 108.23 188.83 111.19 190.53 113.09Z" id="b1mv3Ioipt"></path><path d="M89.22 165.45C84.89 165.5 84.87 172.87 89.22 172.82C105.59 172.65 121.97 172.48 138.35 172.31C142.68 172.27 142.69 164.9 138.35 164.94C138.35 164.94 138.35 164.94 138.35 164.94C116.51 165.17 100.13 165.34 89.22 165.45Z" id="hH9sHkO6A"></path><path d="M137.85 147.81C142.18 147.81 142.19 140.44 137.85 140.44C121.22 140.44 104.6 140.44 87.97 140.44C83.64 140.44 83.63 147.81 87.97 147.81C87.97 147.81 87.97 147.81 87.97 147.81C110.14 147.81 126.77 147.81 137.85 147.81Z" id="a2g8s2i1vo"></path><path d="M138.35 123.52C142.68 123.52 142.69 116.15 138.35 116.15C121.97 116.15 105.59 116.15 89.22 116.15C84.88 116.15 84.88 123.52 89.22 123.52C89.22 123.52 89.22 123.52 89.22 123.52C111.05 123.52 127.43 123.52 138.35 123.52Z" id="c2EyY4HS6"></path><path d="M112.66 99.22C116.99 99.22 117 91.86 112.66 91.86C104.85 91.86 97.03 91.86 89.22 91.86C84.88 91.86 84.88 99.22 89.22 99.22C89.22 99.22 89.22 99.22 89.22 99.22C99.64 99.22 107.45 99.22 112.66 99.22Z" id="c9idUxX81D"></path><path d="M172.95 176.32C173.01 180.44 173.07 184.57 173.13 188.69C173.22 194.91 174.49 196.1 169.92 198.86C164.01 202.45 150.44 199.81 143.54 199.81C134.9 199.81 126.26 199.8 117.62 199.76C108.98 199.72 100.34 199.66 91.7 199.58C88.11 199.55 83.68 200.25 80.18 199.46C74.57 198.2 73.98 200.31 73.29 192.74C71.58 174.02 73.33 154.06 73.34 135.23C73.36 117.12 73.38 99.02 73.39 80.91C73.4 73.54 70.85 58.74 73.42 52.16C76.69 43.77 88 46.41 94.73 46.33C103.05 46.23 111.38 46.19 119.7 46.21C131.34 46.24 137.32 47.5 146.79 56.48C152.18 61.59 157.3 67.22 162.18 72.89C171.27 83.46 172.43 89.57 172.55 103.46C172.58 108.2 179.32 108.21 179.28 103.46C179.2 93.12 180.24 85.47 174.63 77.17C168.15 67.58 159.5 59.33 151.55 51.27C147.3 46.96 143.09 41.58 137.56 39.48C127.62 35.7 110.71 38.81 100.28 38.9C90.01 38.99 70.76 33.31 66.69 45.77C64.81 51.53 66.67 61.92 66.67 68.13C66.66 75.59 66.66 83.04 66.65 90.5C66.64 104.34 66.62 118.19 66.61 132.03C66.6 145.88 66.59 159.72 66.57 173.57C66.57 179.5 63.74 197.97 67.31 203.14C69.35 206.09 71.49 206.01 74.42 206.76C86.36 209.8 102.35 207.05 114.74 207.11C128.18 207.18 141.62 207.2 155.06 207.16C160.63 207.15 172.36 210.13 176.97 205.91C180.97 202.25 179.91 196.97 179.91 191.78C179.89 177.35 179.49 162.9 179.28 148.47C179.21 143.73 172.47 143.72 172.54 148.47C172.54 148.47 172.54 148.47 172.54 148.47C172.72 160.85 172.86 170.13 172.95 176.32Z" id="b2kPkAvDp6"></path><path d="M133.82 72.93C133.85 77.42 132.1 86.59 135.52 90.06C138.67 93.24 145.56 91.57 149.34 91.57C157.24 91.58 165.13 91.58 173.02 91.59C177.35 91.59 177.36 84.22 173.02 84.22C167.45 84.22 161.88 84.21 156.31 84.21C153.52 84.21 150.74 84.21 147.95 84.2C147.18 84.2 140.07 84.76 139.6 84.2C140.05 84.73 140.58 76.44 140.58 76.11C140.56 72.93 140.54 69.75 140.52 66.57C140.48 60.22 140.44 53.86 140.41 47.5C140.38 42.76 133.64 42.75 133.67 47.5C133.67 47.5 133.67 47.5 133.67 47.5C133.74 58.8 133.79 67.28 133.82 72.93Z" id="e3kePCncf"></path></defs><g><g><g><use xlink:href="#a1RJDdqMNl" opacity="1" fill="#52f452" fill-opacity="1"></use></g><g><use xlink:href="#c1lzaucoxg" opacity="1" fill="#231f20" fill-opacity="1"></use><g><use xlink:href="#c1lzaucoxg" opacity="1" fill-opacity="0" stroke="#000000" stroke-width="1" stroke-opacity="0"></use></g></g><g><use xlink:href="#b1mv3Ioipt" opacity="1" fill="#231f20" fill-opacity="1"></use><g><use xlink:href="#b1mv3Ioipt" opacity="1" fill-opacity="0" stroke="#000000" stroke-width="1" stroke-opacity="0"></use></g></g><g><use xlink:href="#hH9sHkO6A" opacity="1" fill="#231f20" fill-opacity="1"></use><g><use xlink:href="#hH9sHkO6A" opacity="1" fill-opacity="0" stroke="#000000" stroke-width="1" stroke-opacity="0"></use></g></g><g><use xlink:href="#a2g8s2i1vo" opacity="1" fill="#231f20" fill-opacity="1"></use><g><use xlink:href="#a2g8s2i1vo" opacity="1" fill-opacity="0" stroke="#000000" stroke-width="1" stroke-opacity="0"></use></g></g><g><use xlink:href="#c2EyY4HS6" opacity="1" fill="#231f20" fill-opacity="1"></use><g><use xlink:href="#c2EyY4HS6" opacity="1" fill-opacity="0" stroke="#000000" stroke-width="1" stroke-opacity="0"></use></g></g><g><use xlink:href="#c9idUxX81D" opacity="1" fill="#231f20" fill-opacity="1"></use><g><use xlink:href="#c9idUxX81D" opacity="1" fill-opacity="0" stroke="#000000" stroke-width="1" stroke-opacity="0"></use></g></g><g><use xlink:href="#b2kPkAvDp6" opacity="1" fill="#231f20" fill-opacity="1"></use><g><use xlink:href="#b2kPkAvDp6" opacity="1" fill-opacity="0" stroke="#000000" stroke-width="1" stroke-opacity="0"></use></g></g><g><use xlink:href="#e3kePCncf" opacity="1" fill="#231f20" fill-opacity="1"></use><g><use xlink:href="#e3kePCncf" opacity="1" fill-opacity="0" stroke="#000000" stroke-width="1" stroke-opacity="0"></use></g></g></g></g></svg>